<svg width="1000" height="300" viewBox="0 0 1000 300" fill="none" xmlns="http://www.w3.org/2000/svg">
<rect width="1000" height="300" fill="#080808"/>
<path d="M530.293 149.982C535.128 142.937 539.871 139.414 544.521 139.414C551.789 139.414 551.503 146.827 551.503 159.236C550.084 159.236 548.551 159.236 548.551 159.236C548.551 155.553 547.308 150.446 546.323 148.694C545.337 146.906 543.613 146.012 541.149 146.012C537.453 146.012 533.835 148.39 530.293 153.146V189.999H522.671V153.146C522.671 149.821 522.378 147.532 521.793 146.28C521.239 145.029 520.284 144.403 518.929 144.403C516.743 144.403 515.403 146.906 514.91 151.913H513.247C513.832 143.58 516.789 139.414 522.117 139.414C524.488 139.414 526.428 140.38 527.937 142.311C529.446 144.206 530.232 146.763 530.293 149.982Z" fill="#F5F5F5"/>
<path d="M573.56 178.173H575.276C574.672 186.057 571.622 189.999 566.126 189.999C564.188 189.999 562.52 189.426 561.122 188.28C559.756 187.099 558.834 185.779 558.358 184.32C557.913 182.827 557.691 180.257 557.691 176.61V159.367C557.691 153.81 557.5 150.25 557.119 148.687C556.737 147.124 555.784 146.343 554.259 146.343C553.37 146.343 552.29 146.603 551.019 147.124L550.352 145.249L563.505 139.414H565.602V177.027C565.602 180.118 565.872 182.236 566.412 183.383C566.952 184.529 567.937 185.102 569.366 185.102C571.527 185.102 572.925 182.792 573.56 178.173Z" fill="#F5F5F5"/>
<path d="M459.393 140.813H467.976L462.775 164.933C461.766 169.517 461.076 172.331 460.705 173.372C462.052 179.763 464.004 182.958 466.562 182.958C469.591 182.958 471.157 180.805 471.258 176.498H473.075C472.974 180.527 472.251 183.791 470.904 186.292C469.591 188.758 467.858 189.991 465.704 189.991C463.92 189.991 462.59 189.244 461.715 187.751C460.84 186.257 459.898 183.201 458.888 178.582C455.387 186.188 449.665 189.991 441.722 189.991C436.302 189.991 431.994 187.82 428.796 183.479C425.599 179.103 424 172.851 424 164.725C424 156.737 425.75 150.52 429.251 146.074C432.751 141.629 436.959 139.406 441.873 139.406C445.34 139.406 448.184 140.674 450.406 143.209C452.627 145.745 454.596 149.877 456.313 155.608L459.393 140.813ZM454.95 161.234C453.368 155.643 451.601 151.284 449.648 148.158C447.696 144.998 445.357 143.418 442.63 143.418C436.471 143.418 433.391 150.85 433.391 165.714C433.391 179.815 436.336 186.865 442.226 186.865C447.343 186.865 451.129 180.648 453.586 168.215L454.95 161.234Z" fill="#F5F5F5"/>
<path d="M494.824 141.326C492.829 139.263 490.057 136.795 486.507 133.922C482.599 130.755 479.966 128.269 478.61 126.464C477.254 124.622 476.576 122.615 476.576 120.442C476.576 117.201 478.211 114.659 481.482 112.818C484.752 110.939 489.02 110 494.285 110C499.55 110 504.137 110.829 508.046 112.486C511.995 114.144 513.969 116.427 513.969 119.337C513.969 120.737 513.49 121.897 512.533 122.818C511.576 123.738 510.459 124.199 509.183 124.199C507.348 124.199 505.194 122.928 502.721 120.387C500.208 117.808 498.074 116.004 496.319 114.972C494.604 113.904 492.59 113.37 490.277 113.37C487.325 113.37 484.892 113.978 482.977 115.193C481.103 116.409 480.165 117.956 480.165 119.834C480.165 121.602 480.943 123.26 482.499 124.807C484.054 126.353 488.063 129.171 494.524 133.259C501.425 137.643 506.291 141.068 509.123 143.536C511.995 146.003 514.328 149.005 516.123 152.541C517.918 156.077 518.815 159.815 518.815 163.757C518.815 170.681 516.163 176.795 510.858 182.099C505.593 187.366 499.43 189.999 492.371 189.999C485.949 189.999 480.524 187.882 476.097 183.646C471.67 179.41 469.456 173.756 469.456 166.685C469.456 159.871 471.889 154.18 476.755 149.613C481.661 145.046 487.684 142.283 494.824 141.326V141.326ZM497.456 143.867C486.009 145.598 480.285 152.854 480.285 165.635C480.285 172.228 481.701 177.348 484.533 180.994C487.405 184.64 490.735 186.464 494.524 186.464C498.473 186.464 501.724 184.714 504.277 181.215C506.829 177.679 508.106 172.909 508.106 166.906C508.106 158.213 504.556 150.534 497.456 143.867V143.867Z" fill="#F5F5F5"/>
<path d="M488.936 159.359H487.952V172.841H488.936C488.936 171.259 489.242 170.124 489.855 169.436C490.468 168.747 491.542 168.403 493.078 168.403H495.227C496.832 168.403 497.937 168.747 498.541 169.436C499.145 170.124 499.447 171.259 499.447 172.841H500.431V159.359H499.447C499.447 160.978 499.137 162.127 498.515 162.807C497.894 163.486 496.815 163.825 495.279 163.825H493.182C491.559 163.825 490.446 163.481 489.842 162.793C489.238 162.104 488.936 160.96 488.936 159.359Z" fill="#F5F5F5"/>
<ellipse cx="560.489" cy="118.911" rx="5.34815" ry="5.34815" fill="#F5F5F5"/>
</svg>
